<?xml version="1.0" encoding="UTF-8" standalone="no"?>
<svg
   width="595.59998pt"
   height="608.20001pt"
   viewBox="0 0 595.59998 608.20001"
   version="1.1"
   id="svg44"
   sodipodi:docname="logo.svg"
   inkscape:version="1.3.2 (091e20e, 2023-11-25, custom)"
   inkscape:export-filename="logo.png"
   inkscape:export-xdpi="96"
   inkscape:export-ydpi="96"
   xmlns:inkscape="http://www.inkscape.org/namespaces/inkscape"
   xmlns:sodipodi="http://sodipodi.sourceforge.net/DTD/sodipodi-0.dtd"
   xmlns="http://www.w3.org/2000/svg"
   xmlns:svg="http://www.w3.org/2000/svg">
  <defs
     id="defs44" />
  <sodipodi:namedview
     id="namedview44"
     pagecolor="#ffffff"
     bordercolor="#666666"
     borderopacity="1.0"
     inkscape:showpageshadow="2"
     inkscape:pageopacity="0.0"
     inkscape:pagecheckerboard="0"
     inkscape:deskcolor="#d1d1d1"
     inkscape:document-units="pt"
     showgrid="false"
     inkscape:zoom="0.59545898"
     inkscape:cx="661.67446"
     inkscape:cy="528.164"
     inkscape:window-width="1920"
     inkscape:window-height="1009"
     inkscape:window-x="1912"
     inkscape:window-y="-8"
     inkscape:window-maximized="1"
     inkscape:current-layer="svg44" />
  <g
     id="g45"
     transform="translate(-147.70197,-168.80931)">
    <g
       transform="matrix(0.1,0,0,-0.1,-59.198032,998.80931)"
       fill="#030201"
       stroke="none"
       id="g44">
      <path
         d="m 2077,8293 -7,-6 v -249 -248 h 288 287 l 2,255 2,255 h -283 -283 z"
         id="path18" />
      <path
         d="m 2730,8045 v -255 h 280 280 v 255 255 h -280 -280 z"
         id="path19" />
      <path
         d="m 4100,8045 v -255 h 290 290 v 255 255 h -290 -290 z"
         id="path20" />
      <path
         d="m 5467,8293 -3,-8 2,-12 2,-13 1,-235 1,-235 h 285 285 v 255 255 h -284 -285 z"
         id="path21" />
      <path
         d="m 6820,8045 v -255 h 280 280 v 255 255 h -280 -280 z"
         id="path22" />
      <path
         d="m 7470,8045 v -255 h 275 275 v 255 255 h -275 -275 z"
         id="path23" />
      <path
         d="m 7470,7463 v -243 h 275 275 v 243 242 h -275 -275 z"
         id="path24" />
      <path
         d="m 2072,7463 3,-238 283,-3 282,-2 v 172 173 l 7,68 6,67 h -292 -291 z"
         id="path25" />
      <path
         d="m 2730,7215 v -485 h 5 6 l 23,27 23,27 46,-27 46,-27 73,-58 73,-59 60,-64 60,-65 52,-76 52,-75 -41,-69 -41,-69 -2,-2 -2,-3 -58,88 -59,87 -100,100 -101,101 -70,46 -69,47 -13,-11 -13,-11 -45,-63 -44,-64 -12,-22 -11,-23 26,28 27,27 h 5 5 l 61,-41 61,-41 72,-69 73,-69 49,-73 50,-72 42,-71 42,-71 -25,-66 -25,-66 -25,-103 -26,-103 -15,-118 -15,-118 v -174 -174 l 16,-112 15,-111 25,-95 25,-95 35,-97 36,-96 52,-105 53,-105 51,-82 51,-82 62,-83 62,-83 131,-131 131,-131 88,-62 89,-62 96,-54 97,-54 105,-42 105,-42 99,-29 99,-28 h 18 19 v -85 -85 h -22 -23 l -92,25 -92,24 -98,37 -98,37 -107,53 -108,54 -67,41 -68,42 -90,68 -90,68 -111,113 -111,113 -55,70 -55,70 -50,75 -50,75 -47,82 -47,81 -41,94 -40,93 -29,82 -29,83 -29,117 -30,118 -16,103 -16,103 v 205 l -1,204 -272,-2 -271,-3 v -75 -75 l 238,-2 238,-2 2,-78 2,-78 -242,-3 -243,-2 v -23 -22 l 6,-52 7,-53 h 244 244 l 3,-12 4,-13 9,-62 9,-62 -21,-5 -20,-6 h -227 -228 v -14 -13 l -31,-7 -32,-6 h -73 -74 v -350 l 1,-349 7,-5 7,-4 495,-8 495,-7 48,-69 47,-68 h -280 -280 v -10 -11 l 48,-64 47,-64 103,-1 h 102 l 18,-18 17,-18 65,-75 65,-74 75,-73 75,-73 95,-77 94,-77 96,-63 95,-63 142,-70 141,-70 149,-48 148,-49 135,-27 135,-26 28,-5 27,-6 v -77 -77 l -76,8 -77,8 -101,21 -101,20 -160,53 -160,54 -95,42 -95,43 -75,40 -75,40 -75,50 -75,50 -71,53 -72,53 -83,78 -83,78 -71,75 -72,75 -78,88 -77,87 h -4 -4 v -465 -465 h 518 l 517,-1 50,-18 50,-19 117,-38 118,-39 v -195 -195 l 6,-38 7,-37 h 963 964 v 231 231 l -22,-6 -23,-6 -63,-16 -62,-17 -55,37 -55,36 h -60 -60 v 53 53 l 68,12 67,12 20,6 21,5 94,-61 95,-62 26,-25 26,-24 74,29 74,29 19,7 18,6 -116,76 -116,76 6,9 5,9 h 14 14 l 57,25 56,25 21,-12 22,-11 75,-50 75,-50 17,-15 18,-15 -18,-14 -17,-15 18,6 19,6 h 494 493 l 3,433 3,432 66,105 66,105 59,102 59,102 193,1 h 192 v 355 355 h -76 -76 l 6,17 7,17 16,151 15,150 -6,190 -7,190 -7,53 -8,52 h 68 68 v 395 395 l 3,8 2,7 -196,3 -195,2 -18,38 -18,37 -66,110 -66,110 -43,61 -43,62 v 426 426 H 5055 2730 Z m 2387,186 1933,-1 -81,-77 -80,-77 2,-119 2,-119 45,-41 45,-42 92,-110 92,-110 55,-75 55,-76 43,-69 43,-70 68,-140 67,-140 30,-92 31,-92 30,-123 30,-123 16,-147 15,-147 v -158 -158 l -15,-130 -15,-130 -16,-80 -16,-80 -54,-163 -53,-164 -51,-105 -50,-106 -52,-91 -52,-91 -50,-70 -50,-70 -65,-80 -65,-80 -55,-58 -56,-58 -108,-92 -108,-92 -103,-71 -102,-70 -90,-52 -90,-52 -120,-55 -121,-54 -134,-45 -134,-44 -92,-20 -93,-20 v 83 82 l 108,27 107,27 140,51 140,52 134,68 134,68 96,64 96,64 110,92 110,92 98,106 97,107 82,114 82,113 73,140 73,141 5,21 5,21 -6,-12 -6,-13 h -24 -25 l -34,15 -35,14 -5,13 -5,13 34,70 34,70 -55,24 -55,25 5,20 4,21 26,87 26,86 7,61 7,61 h 98 99 l -6,-47 -6,-48 -7,-35 -7,-34 -29,-1 h -30 l -32,-95 -31,-95 -1,-13 -1,-12 28,-10 27,-10 29,-15 29,-16 2,3 2,3 31,105 31,105 11,63 11,63 15,117 14,116 v 151 150 l -10,90 -10,90 -21,105 -21,105 -34,112 -34,112 -31,78 -31,78 -69,128 -69,127 -47,65 -48,65 h -160 -160 l -70,65 -70,65 182,-3 182,-2 -37,40 -37,40 -63,63 -63,62 h -715 -714 l -2,-2182 -3,-2183 -273,-3 -272,-2 v 2182 l 1,2183 -616,3 -615,2 v -6 -6 l 36,-44 37,-44 -104,-108 -104,-107 -45,-53 -44,-52 -7,2 -7,3 -73,95 -72,95 -81,78 -81,78 -68,45 -67,46 29,36 29,37 25,23 25,24 63,-42 62,-43 67,-66 67,-66 42,-62 42,-63 h 80 81 l -27,48 -28,47 -36,45 -35,45 -70,78 -70,78 -2,110 -3,110 -56,51 -56,51 -24,19 -25,19 v 9 9 l 58,-3 57,-3 z m 2051,-1083 42,-73 -31,-8 -30,-8 -82,3 -81,3 -48,78 -47,77 h 118 117 z M 4510,5000 V 3620 h -16 -17 l -91,31 -91,31 -100,50 -100,50 -70,46 -70,45 -93,74 -93,75 -68,77 -69,76 -35,46 -34,45 -42,65 -43,64 -53,110 -53,110 -26,72 -25,72 -25,93 -24,93 -12,97 -12,98 5,187 5,188 22,100 21,100 30,90 30,90 54,111 55,111 47,70 48,70 50,61 50,62 h 423 422 z m 2083,1268 84,-113 45,-80 46,-80 27,-65 28,-65 24,-70 24,-70 24,-100 24,-100 10,-97 11,-97 v -89 -88 l -15,-110 -15,-109 -14,-61 -15,-62 -40,-106 -40,-105 -46,-90 -46,-89 -56,-84 -56,-83 -56,-65 -56,-64 -55,-56 -55,-55 -45,-38 -45,-39 -110,-73 -110,-73 -82,-41 -83,-41 -77,-31 -78,-31 -48,-15 -49,-14 -6,6 -7,7 -3,1311 -3,1312 6,63 7,62 h 433 434 z m 722,-273 22,-60 7,-27 6,-28 h -102 -103 l -29,78 -29,77 -10,13 -10,13 113,-3 113,-3 z m 85,-325 11,-40 8,-65 7,-65 -4,-5 -5,-5 h -92 -91 l -12,83 -13,82 -6,28 -5,27 h 95 96 z m 38,-432 -3,-83 h -95 -95 l -3,77 -4,77 64,4 63,3 38,2 38,2 z m -4604,-615 14,-48 7,-18 7,-17 -253,2 -253,3 -6,25 -7,25 -7,38 -7,37 h 245 245 z m 4279,-209 46,-25 -12,-27 -11,-27 -18,-33 -18,-33 v -12 -12 l 40,-25 40,-25 v -8 -8 l -32,-47 -31,-47 -3,-4 -4,-4 -79,53 -80,52 -10,12 -11,13 66,116 66,117 h 3 2 z m -4165,-100 32,-64 v -5 -5 h -259 -258 l -27,61 -26,60 v 4 4 l 38,3 37,3 216,1 216,2 z m 3929,-312 52,-47 -67,-74 -68,-74 -22,12 -22,12 -20,-11 -20,-11 v -17 -17 l 26,-45 26,-45 -39,-34 -38,-33 -24,-16 -24,-16 -21,27 -21,27 -28,52 -28,53 99,103 100,102 38,50 38,50 h 6 l 5,-1 z m -445,-447 39,-68 -5,-13 -5,-12 -60,-41 -60,-41 h -10 -11 v 14 13 l -29,72 -30,71 57,39 57,40 9,-3 9,-2 z m -313,-179 21,-68 v -18 -18 l -65,-26 -65,-26 h -8 -9 l -18,83 -18,82 -1,9 -1,9 65,28 65,28 7,-7 6,-7 z m 839,-34 44,-35 -42,-42 -42,-43 -23,-12 -23,-12 -54,36 -55,36 -16,18 -16,17 67,51 67,51 25,-15 25,-15 z m -1171,-58 11,-49 1,-41 1,-42 -17,-7 -18,-6 -62,-13 -63,-14 v 103 102 l 58,10 57,10 10,-2 10,-2 z m 831,-191 62,-37 v -8 -8 l -69,-46 -70,-46 -9,3 -10,4 -80,50 -81,50 -1,7 v 8 l 58,29 57,29 20,16 20,15 20,-15 20,-14 z"
         id="path26" />
      <path
         d="m 3390,7135 v -105 h 1659 1659 l 16,-6 16,-6 v 111 111 H 5065 3390 Z"
         id="path27" />
      <path
         d="m 4947,6883 -5,-8 5,-92 6,-93 h 128 129 v 100 100 h -129 -130 z"
         id="path28" />
      <path
         d="m 4950,6470 v -80 h 130 130 v 80 80 h -130 -130 z"
         id="path29" />
      <path
         d="m 4945,6230 -3,-5 3,-30 3,-30 1,-42 1,-43 h 130 130 v 75 75 l -57,2 -58,2 h -73 l -74,1 z"
         id="path30" />
      <path
         d="m 4950,5825 v -115 h 130 130 v 115 115 h -130 -130 z"
         id="path31" />
      <path
         d="m 4947,5563 -3,-8 2,-12 2,-13 1,-110 1,-110 h 130 130 v 130 130 h -129 -130 z"
         id="path32" />
      <path
         d="m 4950,5055 v -105 h 130 130 v 105 105 h -130 -130 z"
         id="path33" />
      <path
         d="m 4950,4520 v -290 h 130 130 v 290 290 h -130 -130 z"
         id="path34" />
      <path
         d="m 4950,3790 v -300 l 130,1 h 130 v 300 299 h -130 -130 z"
         id="path35" />
      <path
         d="m 4950,3230 v -120 h 130 130 v 120 120 h -130 -130 z"
         id="path36" />
      <path
         d="m 5038,2973 -88,-4 v -149 -150 h 130 131 l -3,153 -3,152 -40,1 h -40 z"
         id="path37" />
      <path
         d="m 2072,6029 3,-401 55,-3 55,-3 348,-7 347,-8 v 7 6 l -26,43 -26,42 -22,32 -21,33 h -234 -233 l 6,28 7,27 10,38 10,37 h 114 115 v 12 11 l -26,36 -26,36 -56,51 -56,52 19,43 19,44 14,22 14,23 30,-18 30,-17 43,-38 43,-37 50,-68 50,-67 21,-42 21,-43 h 90 90 v 5 5 l -35,70 -35,70 -37,58 -36,57 -77,77 -77,76 -57,38 -56,37 5,19 6,18 h -240 -241 z"
         id="path38" />
      <path
         d="m 2070,3055 1,-245 h 290 289 l -2,243 -3,242 -288,3 -288,2 z"
         id="path39" />
      <path
         d="m 7470,3055 v -245 h 275 275 v 245 245 h -275 -275 z"
         id="path40" />
      <path
         d="m 2077,2723 -7,-6 v -244 -243 h 288 287 v 248 247 l -281,3 -280,2 z"
         id="path41" />
      <path
         d="m 2734,2721 -4,-4 v -244 -243 h 280 280 v 245 245 l -207,2 -208,2 -68,1 h -69 z"
         id="path42" />
      <path
         d="m 6918,2723 -98,-4 v -244 -245 h 264 264 l 16,-6 16,-6 v 256 256 l -182,-2 -183,-2 z"
         id="path43" />
      <path
         d="m 7470,2480 v -250 h 275 275 v 250 250 h -275 -275 z"
         id="path44" />
    </g>
  </g>
</svg>
